<svg xmlns="http://www.w3.org/2000/svg" width="20.765" height="20.724" viewBox="0 0 20.765 20.724"><defs><style>.a{fill:#707070;}</style></defs><path class="a" d="M4.093,3.61a.81.81,0,1,1,.655.333A.81.81,0,0,1,4.093,3.61ZM1.026,8.678a.809.809,0,1,0-.52-1.02A.815.815,0,0,0,1.026,8.678ZM7.41,2.586a.81.81,0,1,0-.77-.56A.8.8,0,0,0,7.41,2.586ZM2.158,5.9A.81.81,0,1,0,1.98,4.77.805.805,0,0,0,2.158,5.9ZM.016,11.021c.005.026.012.051.019.077s.017.05.027.074a.763.763,0,0,0,.034.072.771.771,0,0,0,.04.068.663.663,0,0,0,.047.064.789.789,0,0,0,.112.113.746.746,0,0,0,.064.047.847.847,0,0,0,.14.074c.024.01.049.019.074.027s.051.014.077.019.053.009.078.012a.788.788,0,0,0,.16,0c.026,0,.053-.006.079-.012s.051-.012.077-.019.05-.017.074-.027a.843.843,0,0,0,.14-.074.746.746,0,0,0,.064-.047.807.807,0,0,0,.16-.176.845.845,0,0,0,.074-.14c.01-.024.019-.049.027-.074s.014-.051.019-.077.009-.053.012-.079,0-.053,0-.08,0-.053,0-.08-.006-.053-.012-.079-.012-.051-.019-.077-.017-.05-.027-.074a.845.845,0,0,0-.074-.14.8.8,0,0,0-.16-.176.67.67,0,0,0-.064-.047.843.843,0,0,0-.14-.074c-.024-.01-.049-.019-.074-.027s-.051-.014-.077-.019S.916,10.06.89,10.058a.807.807,0,0,0-.159,0c-.026,0-.053.006-.078.012s-.051.012-.077.019-.05.017-.074.027a.847.847,0,0,0-.14.074.67.67,0,0,0-.064.047.789.789,0,0,0-.112.113.663.663,0,0,0-.047.064.771.771,0,0,0-.04.068.763.763,0,0,0-.034.072c-.01.024-.019.049-.027.074s-.014.051-.019.077A.816.816,0,0,0,0,10.863a.82.82,0,0,0,.016.158ZM19.956,2.363a.81.81,0,0,0-.81.81v2.19A10.361,10.361,0,0,0,10.363.5a.818.818,0,0,0-.09.005l-.065.01A.8.8,0,0,0,9.96.609L9.92.633a.8.8,0,0,0-.079.058c-.017.014-.033.028-.048.043L9.787.741c-.015.015-.029.031-.043.047a.811.811,0,0,0-.059.08L9.661.908a.8.8,0,0,0-.093.248c0,.022-.008.043-.01.065v.011a.792.792,0,0,0,0,.159V1.4c0,.022.006.043.01.065a.8.8,0,0,0,.093.248l.023.038a.815.815,0,0,0,.06.081c.014.016.028.032.043.047l.007.007c.015.015.031.029.047.043l.013.011.046.035.02.014.039.024a.8.8,0,0,0,.248.093l.064.01h.012a.763.763,0,0,0,.079,0,8.787,8.787,0,0,1,7.475,4.207l-1.85,0a.81.81,0,0,0,0,1.619h0l2.368,0h.008a2.372,2.372,0,0,0,1.69-.7,2.422,2.422,0,0,0,.709-1.735V3.172A.81.81,0,0,0,19.956,2.363ZM19.74,13.048a.809.809,0,1,0-.5,1.54.818.818,0,0,0,.251.04.81.81,0,0,0,.25-1.579Zm-6.634,6.132a.809.809,0,1,0,1.02.52A.809.809,0,0,0,13.106,19.181Zm5.5-3.356a.81.81,0,1,0,.178,1.131A.81.81,0,0,0,18.608,15.825Zm-3.067,2.113a.81.81,0,1,0,1.131.178A.81.81,0,0,0,15.541,17.938ZM20.749,10.7c-.005-.026-.012-.051-.019-.077s-.017-.05-.027-.074a.772.772,0,0,0-.034-.072c-.013-.023-.026-.046-.04-.068a.808.808,0,0,0-.224-.224.843.843,0,0,0-.14-.074c-.024-.01-.049-.019-.074-.027s-.051-.014-.077-.019-.053-.009-.079-.012a.807.807,0,0,0-.159,0c-.026,0-.053.006-.078.012s-.051.012-.077.019-.05.017-.074.027a.847.847,0,0,0-.14.074.8.8,0,0,0-.176.16.663.663,0,0,0-.047.064.771.771,0,0,0-.04.068.763.763,0,0,0-.034.072c-.01.024-.019.049-.027.074s-.014.051-.019.077a.815.815,0,0,0-.016.158.814.814,0,0,0,.237.572.815.815,0,0,0,.123.1.847.847,0,0,0,.14.074c.024.01.049.019.074.027s.051.014.077.019a.806.806,0,0,0,.317,0c.026-.005.051-.012.077-.019s.05-.017.074-.027a.843.843,0,0,0,.14-.074.816.816,0,0,0,.123-.1.815.815,0,0,0,.237-.572c0-.026,0-.053,0-.08S20.755,10.731,20.749,10.7Zm-9.537,9.711a.746.746,0,0,0,0-.078l0-.013c0-.021-.005-.042-.01-.062a.8.8,0,0,0-.093-.249l-.023-.038-.015-.022c-.011-.015-.022-.03-.033-.045l-.012-.014c-.013-.016-.027-.031-.042-.046l-.008-.009c-.014-.014-.03-.028-.046-.041l-.015-.013-.044-.033-.022-.015-.038-.023a.8.8,0,0,0-.249-.093l-.061-.009a.812.812,0,0,0-.093-.006A8.787,8.787,0,0,1,2.927,15.4l1.85,0a.81.81,0,0,0,0-1.619h0l-2.368,0H2.4a2.372,2.372,0,0,0-1.69.7A2.422,2.422,0,0,0,0,16.213v2.34a.81.81,0,0,0,1.619,0v-2.19A10.362,10.362,0,0,0,10.4,21.225h0a.754.754,0,0,0,.08,0h.011l.065-.01a.8.8,0,0,0,.247-.093l.039-.024a.808.808,0,0,0,.08-.059c.016-.013.032-.028.047-.042l.008-.008c.015-.015.029-.03.042-.047l.011-.014c.012-.015.023-.03.034-.045l.014-.021.024-.039a.8.8,0,0,0,.093-.249c0-.021.007-.042.01-.063l0-.013a.772.772,0,0,0,0-.078Zm.934-7.7-.738.732a7.616,7.616,0,0,1-2.034-1.5l-.052-.052a7.616,7.616,0,0,1-1.5-2.034l.732-.738c.834-.854.335-1.713-.493-2.573a1.107,1.107,0,0,0-1.536-.055l-.011.01a2.817,2.817,0,0,0-.762,2.064,7.1,7.1,0,0,0,2.266,4.682A7.1,7.1,0,0,0,12.7,15.513l.005.005a2.817,2.817,0,0,0,2.064-.762l.01-.011a1.107,1.107,0,0,0-.055-1.536C13.86,12.38,13,11.881,12.147,12.715Z" transform="translate(0 -0.501)"/></svg>