<svg xmlns="http://www.w3.org/2000/svg" width="10.191" height="15.151" viewBox="0 0 10.191 15.151"><path d="M66.116,3.96H63.881A4.406,4.406,0,0,0,62.116.88h4a.44.44,0,0,0,0-.88H56.805a.44.44,0,1,0,0,.88h2.667A3.556,3.556,0,0,1,63,3.96H56.805a.44.44,0,1,0,0,.88H63a3.562,3.562,0,0,1-3.525,3.124H56.809a.447.447,0,0,0-.44.453.454.454,0,0,0,.136.317l6.658,6.3a.438.438,0,0,0,.62-.018.449.449,0,0,0-.018-.629l-5.857-5.54h1.558a4.445,4.445,0,0,0,4.413-4h2.235a.44.44,0,0,0,0-.88Z" transform="translate(-56.365)"/></svg>