<svg xmlns="http://www.w3.org/2000/svg" width="67.5" height="17" viewBox="0 0 67.5 17"><defs><style>.a{fill:none;}.a,.b,.c{fill-rule:evenodd;}.b{fill:#0073b0;}.c{fill:#0073b1;}</style></defs><g transform="translate(-101.324 -154.999)"><path class="a" d="M370.077,172h14.2a1.4,1.4,0,0,0,1.4-1.4V156.4a1.4,1.4,0,0,0-1.4-1.4h-14.2a1.4,1.4,0,0,0-1.4,1.4v14.2a1.4,1.4,0,0,0,1.4,1.4" transform="translate(-216.853)"/><path class="b" d="M370.077,172h14.2a1.4,1.4,0,0,0,1.4-1.4V156.4a1.4,1.4,0,0,0-1.4-1.4h-14.2a1.4,1.4,0,0,0-1.4,1.4v14.2A1.4,1.4,0,0,0,370.077,172Zm5.1-10.5h2.375v1.2a2.788,2.788,0,0,1,2.473-1.321c2.351,0,3.152,1.063,3.152,3.586V169.5h-2.5v-4.008c0-1.328-.259-2.055-1.229-2.055-1.31,0-1.771,1-1.771,2.055V169.5h-2.5v-8Zm-4,8h2.5v-8h-2.5Zm2.775-10.75a1.525,1.525,0,1,1-1.525-1.525A1.525,1.525,0,0,1,373.952,158.749Z" transform="translate(-216.853)"/><path class="c" d="M149.324,180.235h-2.165v-.9h-.035a2.966,2.966,0,0,1-2.3,1.025c-2.729,0-4-1.712-4-4.125,0-2.4,1.338-4.125,3.75-4.125a2.513,2.513,0,0,1,2.25,1.025v-4.9h2.5v12Zm-4.275-6.2c-1.147,0-1.824.944-1.824,2.262s.678,2.138,1.824,2.138c1.166,0,1.875-.818,1.875-2.138S146.2,174.035,145.048,174.035Zm-5.506,4.872a4.6,4.6,0,0,1-3.718,1.453,4.126,4.126,0,1,1,.178-8.25c2.283,0,3.884,1.6,3.884,4.166a4.191,4.191,0,0,1-.121.954h-5.715l.02.116a1.85,1.85,0,0,0,1.851,1.264,2.874,2.874,0,0,0,2.092-.892l1.527,1.189Zm-1.86-3.548a1.725,1.725,0,0,0-1.729-1.5,1.787,1.787,0,0,0-1.913,1.5Zm-13.858-7.124h2.5V175.5l2.779-3.266h3.027l-3.5,3.816,3.555,4.183h-2.9l-2.966-3.7v3.7h-2.5v-12Zm-9.5,4h2.165v1.121h.035a3.006,3.006,0,0,1,2.6-1.246c2.565,0,3.2,1.453,3.2,3.646v4.479h-2.5V176.29c0-.944-.05-2.17-1.348-2.17-1.315,0-1.651,1.107-1.651,2.17v3.945h-2.5v-8Zm-2.75-3.938a1.437,1.437,0,1,1-1.437,1.437A1.484,1.484,0,0,1,111.574,168.3Zm-1.25,11.937h2.5v-8h-2.5Zm-9-12h2.5v9.5h5v2.5h-7.5Z" transform="translate(0 -10.736)"/></g></svg>