<svg xmlns="http://www.w3.org/2000/svg" width="30.829" height="30.829" viewBox="0 0 30.829 30.829"><defs><style>.a{fill:#cecfd0;}</style></defs><path class="a" d="M13.043,0H1.186A1.186,1.186,0,0,0,0,1.186V13.043a1.186,1.186,0,0,0,1.186,1.186H13.043a1.186,1.186,0,0,0,1.186-1.186V1.186A1.186,1.186,0,0,0,13.043,0Z"/><path class="a" d="M159.328,0H147.471a1.186,1.186,0,0,0-1.186,1.186V13.043a1.186,1.186,0,0,0,1.186,1.186h11.857a1.186,1.186,0,0,0,1.186-1.186V1.186A1.186,1.186,0,0,0,159.328,0Z" transform="translate(-129.685)"/><path class="a" d="M13.043,146.286H1.186A1.186,1.186,0,0,0,0,147.472v11.857a1.186,1.186,0,0,0,1.186,1.186H13.043a1.186,1.186,0,0,0,1.186-1.186V147.472A1.186,1.186,0,0,0,13.043,146.286Z" transform="translate(0 -129.686)"/><path class="a" d="M159.328,146.286H147.471a1.186,1.186,0,0,0-1.186,1.186v11.857a1.186,1.186,0,0,0,1.186,1.186h11.857a1.186,1.186,0,0,0,1.186-1.186V147.472A1.186,1.186,0,0,0,159.328,146.286Z" transform="translate(-129.685 -129.686)"/></svg>