<svg xmlns="http://www.w3.org/2000/svg" width="30.829" height="15.414" viewBox="0 0 30.829 15.414"><g transform="translate(0 -96.243)"><g transform="translate(0 96.243)"><path d="M.963,98.17h28.9a.963.963,0,0,0,0-1.927H.963a.963.963,0,1,0,0,1.927Z" transform="translate(0 -96.243)"/><path d="M29.866,180.455H.963a.963.963,0,1,0,0,1.927h28.9a.963.963,0,0,0,0-1.927Z" transform="translate(0 -173.711)"/><path d="M140.535,264.667H121.266a.963.963,0,0,0,0,1.927h19.268a.963.963,0,1,0,0-1.927Z" transform="translate(-110.669 -251.179)"/></g></g></svg>