<svg xmlns="http://www.w3.org/2000/svg" width="15.834" height="17.624" viewBox="0 0 15.834 17.624"><defs><style>.a{fill:#373738;}</style></defs><g transform="translate(11.359 13.631)"><path class="a" d="M356.344,396a.344.344,0,1,0,.344.344A.344.344,0,0,0,356.344,396Z" transform="translate(-356 -396)"/></g><g transform="translate(0)"><path class="a" d="M38.551,12.518l-1.636-.545L36.327,10.8A3.77,3.77,0,0,0,37.348,8.8l.073-.439h.626A1.034,1.034,0,0,0,39.08,7.332V5.163a5.163,5.163,0,1,0-10.326,0V7.332a1.034,1.034,0,0,0,.688.973v.4a1.034,1.034,0,0,0,1.033,1.033h.3a3.734,3.734,0,0,0,.577.894c.049.056.1.11.152.163l-.587,1.174-1.636.545A5.074,5.074,0,0,0,26,17.279a.344.344,0,0,0,.344.344H41.49a.344.344,0,0,0,.344-.344A5.074,5.074,0,0,0,38.551,12.518Zm-.159-5.186a.345.345,0,0,1-.344.344h-.525c.087-.678.146-1.4.169-2.109,0-.02,0-.04,0-.059h.7Zm-8.605.344a.345.345,0,0,1-.344-.344V5.507h.7q0,.054,0,.108v0h0c.024.691.082,1.393.167,2.056h-.525Zm.688,1.377a.345.345,0,0,1-.344-.344V8.364h.282l.073.439c.014.083.031.167.051.249Zm-.344-4.234h-.676a4.475,4.475,0,0,1,8.923,0H37.7a3.486,3.486,0,0,0-3.478-3.442h-.616A3.486,3.486,0,0,0,30.131,4.819Zm3.478-2.754h.616a2.8,2.8,0,0,1,2.79,2.8c0,.108,0,.2,0,.288,0,0,0,0,0,0L36.582,5.1a5.531,5.531,0,0,1-3.11-1.555.344.344,0,0,0-.243-.1,3.114,3.114,0,0,0-2.394,1.133A2.8,2.8,0,0,1,33.609,2.065ZM31.251,9.053a19.675,19.675,0,0,1-.413-3.341l.463-.618a2.423,2.423,0,0,1,1.792-.96,6.226,6.226,0,0,0,3.392,1.645l.507.072c-.034.719-.1,1.44-.2,2.1h0c-.032.213-.056.351-.12.734a2.924,2.924,0,0,1-2.075,2.351,2.708,2.708,0,0,1-3.04-1.3h.7a1.034,1.034,0,0,0,.973.688h.688a1.033,1.033,0,0,0,0-2.065h-.688a1.033,1.033,0,0,0-.974.688ZM33.2,11.738a3.453,3.453,0,0,0,1.28.029l-.608.643Zm.2,1.172-1.092,1.155a13.115,13.115,0,0,1-.771-1.787l.41-.82Zm2.431-1.569.468.937a13.112,13.112,0,0,1-.771,1.788L34.359,12.9ZM32.884,9.4a.344.344,0,0,1,.344-.344h.688a.344.344,0,0,1,0,.688h-.688A.345.345,0,0,1,32.884,9.4ZM26.7,16.935a4.35,4.35,0,0,1,2.8-3.764l1.449-.483a13.8,13.8,0,0,0,.98,2.125l0,0h0a13.8,13.8,0,0,0,.942,1.439l.423.68Zm7.215-.307-.467-.749-.017-.024a13.124,13.124,0,0,1-.776-1.159l1.228-1.3,1.293,1.293a13.109,13.109,0,0,1-.778,1.163C34.384,15.877,34.408,15.841,33.917,16.628Zm.62.307.423-.68a13.8,13.8,0,0,0,.949-1.45l.005-.009h0a13.787,13.787,0,0,0,.969-2.107l1.449.483a4.35,4.35,0,0,1,2.8,3.764Z" transform="translate(-26)"/></g><g transform="translate(12.569 14.288)"><path class="a" d="M392.668,416.343a3.442,3.442,0,0,0-.974-1.183.344.344,0,0,0-.42.546,2.749,2.749,0,0,1,.778.945.344.344,0,0,0,.616-.308Z" transform="translate(-391.139 -415.088)"/></g></svg>