<svg xmlns="http://www.w3.org/2000/svg" width="14" height="23.154" viewBox="0 0 14 23.154"><defs><style>.a{fill:#b9b9bf;}</style></defs><g transform="translate(-90.667)"><g transform="translate(90.667)"><g transform="translate(0)"><path class="a" d="M210.154,4.308A2.154,2.154,0,1,0,208,2.154,2.16,2.16,0,0,0,210.154,4.308Z" transform="translate(-202.077)"/><path class="a" d="M104.667,103.538v-2.154a5.521,5.521,0,0,1-4.685-2.638l-1.023-1.723A2.1,2.1,0,0,0,97.129,96a2.161,2.161,0,0,0-.808.162l-5.654,2.315v5.062h2.154V99.931l1.885-.808-2.962,15.185h2.262l1.885-8.615,2.315,2.154v6.462h2.154v-8.131l-2.208-2.208.646-3.231A7.515,7.515,0,0,0,104.667,103.538Z" transform="translate(-90.667 -91.154)"/></g></g></g></svg>