<svg xmlns="http://www.w3.org/2000/svg" width="47.443" height="17.005" viewBox="0 0 47.443 17.005"><defs><style>.a{fill:#e21b1b;}.b,.c{fill:#fff;}.c{opacity:0.2;}</style></defs><g transform="translate(0 -164.24)"><path class="a" d="M232.747,181.245h-24.9a1.729,1.729,0,0,1-1.724-1.724V165.964a1.729,1.729,0,0,1,1.724-1.724h24.9a1.729,1.729,0,0,1,1.724,1.724v13.559A1.73,1.73,0,0,1,232.747,181.245Z" transform="translate(-187.028 0)"/><g transform="translate(22.287 169.393)"><path class="b" d="M242.531,225.036H240.52V223.96h5.337v1.076h-2.035v5.985h-1.291Z" transform="translate(-240.52 -223.58)"/><path class="b" d="M305.2,248.63c0,.607.022,1.112.042,1.531H304.1l-.063-.778h-.019a1.855,1.855,0,0,1-1.636.89c-.933,0-1.779-.557-1.779-2.224v-2.993h1.285v2.778c0,.848.275,1.4.955,1.4a1.089,1.089,0,0,0,1.057-1.094v-3.081h1.29Z" transform="translate(-295.04 -242.721)"/><path class="b" d="M364.7,227.3c.021-.348.044-.91.044-1.436v-6h1.287V222.9h.021a1.854,1.854,0,0,1,1.631-.815c1.249,0,2.138,1.038,2.129,2.588a2.442,2.442,0,0,1-2.315,2.743,1.757,1.757,0,0,1-1.613-.88h-.022l-.063.765Zm1.334-2.107a1.3,1.3,0,0,0,.032.3,1.191,1.191,0,0,0,1.142.9c.807,0,1.3-.652,1.3-1.676,0-.9-.43-1.639-1.29-1.639a1.212,1.212,0,0,0-1.142.943,1.7,1.7,0,0,0-.042.335v.83Z" transform="translate(-353.197 -219.856)"/><path class="b" d="M428.956,246.862a1.387,1.387,0,0,0,1.437,1.334,1.17,1.17,0,0,0,.135-.012,3.844,3.844,0,0,0,1.414-.234l.19.89a4.825,4.825,0,0,1-1.784.317,2.416,2.416,0,0,1-2.629-2.581,2.529,2.529,0,0,1,2.307-2.734c.062-.005.124-.008.186-.009a2.221,2.221,0,0,1,2.2,2.486,3.272,3.272,0,0,1-.042.545h-3.415Zm2.242-.9a1.1,1.1,0,0,0-.941-1.236,1.054,1.054,0,0,0-.119-.01,1.26,1.26,0,0,0-1.186,1.246Z" transform="translate(-410.364 -241.61)"/></g><path d="M2.233,231.02v-2.941L0,223.96H1.468l.848,1.809c.243.525.421.924.611,1.4h.019c.18-.45.377-.89.62-1.4l.848-1.809H5.867L3.52,228.046v2.973Z" transform="translate(0 -54.186)"/><path d="M62.254,246.408a2.525,2.525,0,0,1-2.618,2.713,2.465,2.465,0,0,1-2.56-2.365,2.358,2.358,0,0,1,0-.261,2.521,2.521,0,0,1,2.323-2.7,2.4,2.4,0,0,1,.318,0,2.446,2.446,0,0,1,2.537,2.351A2.314,2.314,0,0,1,62.254,246.408Zm-3.844.057c0,.981.48,1.727,1.265,1.727.735,0,1.249-.721,1.249-1.752,0-.8-.358-1.7-1.236-1.7-.911,0-1.278.875-1.278,1.73Z" transform="translate(-51.784 -72.174)"/><path d="M128.789,248.63c0,.607.021,1.112.042,1.531H127.7l-.063-.778h-.019a1.855,1.855,0,0,1-1.636.89c-.933,0-1.779-.557-1.779-2.224v-2.993h1.287v2.778c0,.848.275,1.4.955,1.4a1.089,1.089,0,0,0,1.057-1.094v-3.081h1.29S128.789,248.63,128.789,248.63Z" transform="translate(-112.691 -73.327)"/><g transform="translate(19.1 164.24)"><g transform="translate(0 0)"><path class="c" d="M206.128,166.422v11.621a2.13,2.13,0,0,0,.106.636L223.39,164.24H206.138" transform="translate(-206.128 -164.24)"/></g></g></g></svg>