<svg xmlns="http://www.w3.org/2000/svg" width="22.042" height="21.989" viewBox="0 0 22.042 21.989"><defs><style>.a{fill:#b9b9bf;}</style></defs><path class="a" d="M8.8,19.744v2.232l-.54-.436a36.19,36.19,0,0,1-4.08-3.989C1.408,14.364,0,11.5,0,9.047V8.8a8.8,8.8,0,1,1,17.608,0v.243c0,.206-.011.416-.031.627L15.856,8.1a7.086,7.086,0,0,0-14.138.7v.243C1.718,13.2,7.063,18.219,8.8,19.744Zm5.282-1.234h2.577V15.933H14.086ZM8.8,5.154A3.65,3.65,0,1,1,5.154,8.8,3.655,3.655,0,0,1,8.8,5.154Zm0,1.718A1.933,1.933,0,1,0,10.737,8.8,1.935,1.935,0,0,0,8.8,6.871ZM20.885,17.343,20.4,16.9V19.66a2.332,2.332,0,0,1-2.329,2.329H12.634A2.332,2.332,0,0,1,10.3,19.66V16.9l-.483.441L8.664,16.074l6.689-6.1,6.689,6.1Zm-2.2-2.008L15.353,12.3l-3.33,3.038V19.66a.612.612,0,0,0,.611.611h5.439a.612.612,0,0,0,.611-.611Zm0,0"/></svg>