<svg xmlns="http://www.w3.org/2000/svg" width="25.32" height="23.739" viewBox="0 0 25.32 23.739"><defs><style>.a{fill:#eceff1;}.b{fill:#388e3c;}.c{fill:#2e7d32;}.d{fill:#fafafa;}</style></defs><path class="a" d="M267.869,97.419H256.791a.792.792,0,0,1-.791-.791V80.8a.792.792,0,0,1,.791-.791h11.078a.792.792,0,0,1,.791.791V96.627A.792.792,0,0,1,267.869,97.419Z" transform="translate(-243.34 -76.845)"/><g transform="translate(12.66 6.331)"><path class="b" d="M259.956,145.594h-3.165a.791.791,0,0,1,0-1.583h3.165a.791.791,0,0,1,0,1.583Z" transform="translate(-256 -144.011)"/><path class="b" d="M259.956,209.594h-3.165a.791.791,0,1,1,0-1.583h3.165a.791.791,0,0,1,0,1.583Z" transform="translate(-256 -204.846)"/><path class="b" d="M259.956,273.594h-3.165a.791.791,0,1,1,0-1.583h3.165a.791.791,0,0,1,0,1.583Z" transform="translate(-256 -265.681)"/><path class="b" d="M259.956,337.594h-3.165a.791.791,0,0,1,0-1.583h3.165a.791.791,0,0,1,0,1.583Z" transform="translate(-256 -326.516)"/><path class="b" d="M386.374,145.594h-1.582a.791.791,0,0,1,0-1.583h1.582a.791.791,0,0,1,0,1.583Z" transform="translate(-377.67 -144.011)"/><path class="b" d="M386.374,209.594h-1.582a.791.791,0,1,1,0-1.583h1.582a.791.791,0,1,1,0,1.583Z" transform="translate(-377.67 -204.846)"/><path class="b" d="M386.374,273.594h-1.582a.791.791,0,1,1,0-1.583h1.582a.791.791,0,1,1,0,1.583Z" transform="translate(-377.67 -265.681)"/><path class="b" d="M386.374,337.594h-1.582a.791.791,0,0,1,0-1.583h1.582a.791.791,0,0,1,0,1.583Z" transform="translate(-377.67 -326.516)"/></g><path class="c" d="M13.956,16.172a.778.778,0,0,0-.65-.168L.646,18.379A.789.789,0,0,0,0,19.156V36.563a.79.79,0,0,0,.646.777l12.66,2.374a.745.745,0,0,0,.146.014.791.791,0,0,0,.791-.791V16.782A.789.789,0,0,0,13.956,16.172Z" transform="translate(0 -15.989)"/><path class="d" d="M86.909,167.418l-2.5-2.86,2.53-3.254a.792.792,0,1,0-1.249-.973l-2.344,3.013-1.975-2.257a.791.791,0,1,0-1.19,1.041l2.176,2.488-2.206,2.836a.792.792,0,0,0,1.25.972l2.018-2.6,2.3,2.629a.79.79,0,1,0,1.19-1.04Z" transform="translate(-76.028 -152.903)"/></svg>