<svg xmlns="http://www.w3.org/2000/svg" width="45" height="17" viewBox="0 0 45 17"><defs><style>.a{fill:#3b5998;}.b{fill:#fff;fill-rule:evenodd;}</style></defs><g transform="translate(0 -0.485)"><rect class="a" width="45" height="17" transform="translate(0 0.485)"/><g transform="translate(3.964 4.804)"><path class="b" d="M129.531,31.025a1.535,1.535,0,0,0-1.431.593V28.644l-1.46.177V35.7h1.46v-.409a2.694,2.694,0,0,0,.612.39,1.779,1.779,0,0,0,2.365-1.081,3.792,3.792,0,0,0,.056-2.216A1.7,1.7,0,0,0,129.531,31.025Zm.218,2.981a.751.751,0,0,1-.854.658,1.012,1.012,0,0,1-.291-.064.994.994,0,0,1-.48-.739h0a3.251,3.251,0,0,1,.108-1.317.751.751,0,0,1,.676-.388.743.743,0,0,1,.838.65A4.219,4.219,0,0,1,129.749,34.005Z" transform="translate(-109.366 -28.644)"/><path class="b" d="M159.6,42.845a2.92,2.92,0,0,0-1.526,0,1.838,1.838,0,0,0-1.43,1.444,4.9,4.9,0,0,0-.084,1.286,1.966,1.966,0,0,0,1.595,1.888l.04.009h.007l.108.019.036,0h0c.045.008.1.015.157.019a2.936,2.936,0,0,0,.612.01h.033a2,2,0,0,0,1.916-1.6,3.474,3.474,0,0,0,0-1.543A1.917,1.917,0,0,0,159.6,42.845Zm.062,2.822c0,.03-.01.06-.017.09a.826.826,0,0,1-1.626-.086,5.6,5.6,0,0,1-.007-.989.832.832,0,0,1,1.635-.173,4.451,4.451,0,0,1,.015,1.159Z" transform="translate(-134.261 -40.379)"/><path class="b" d="M27.06,31.14H26.018v-.693c.076-.655,1.158-.531,1.158-.531V28.791h0c-.037-.009-2.152-.511-2.572,1.1h0l0,.011a8.173,8.173,0,0,0-.061,1.239h-.9v1.232H24.6v3.352h1.4V32.373H27.06l.12-1.232Z" transform="translate(-23.636 -28.699)"/><path class="b" d="M47.961,43.4l-.049-.052h0l-.007-.007-.035-.035a1.442,1.442,0,0,0-.711-.494A1.783,1.783,0,0,0,44.9,44.033a3.949,3.949,0,0,0-.08,1.863,1.8,1.8,0,0,0,2.3,1.571,1.378,1.378,0,0,0,.795-.555.452.452,0,0,0,.045-.073v.591h1.362V42.813H47.961V43.4Zm-.12,2.324a.739.739,0,0,1-.8.667.773.773,0,0,1-.786-.642,4,4,0,0,1,.029-1.3.736.736,0,0,1,.8-.563.725.725,0,0,1,.757.663A5.527,5.527,0,0,1,47.841,45.721Z" transform="translate(-41.206 -40.367)"/><path class="b" d="M78.4,47.146c-.063-.231-.135-.459-.2-.68l-.066-.245s-1.708.82-1.974-.738a3.354,3.354,0,0,1,.018-.776.837.837,0,0,1,.823-.779,1.839,1.839,0,0,1,.476.019c.212.036.418.1.65.157.08-.246.163-.49.239-.735.012-.038.022-.072.03-.1h0l.038-.147a.174.174,0,0,0-.064-.06h0a.765.765,0,0,0-.211-.1c-.042-.015-.084-.029-.126-.042l-.062-.019h0a3.59,3.59,0,0,0-1.377-.089,1.955,1.955,0,0,0-1.841,1.647,3.74,3.74,0,0,0,.019,1.524,1.852,1.852,0,0,0,1.376,1.469,3.382,3.382,0,0,0,1.486.073,4.677,4.677,0,0,0,.725-.219l.082-.029-.039-.131Z" transform="translate(-66.118 -40.413)"/><path class="b" d="M102.147,45.4a7.829,7.829,0,0,0-.047-.955,1.708,1.708,0,0,0-1.5-1.549,3.871,3.871,0,0,0-.995-.016,1.816,1.816,0,0,0-1.723,1.49,5.365,5.365,0,0,0-.027,1.569,1.691,1.691,0,0,0,1.132,1.5H99a4.413,4.413,0,0,0,3.035-.175l-.051-.189h0c-.059-.252-.131-.5-.2-.751l-.007-.024-.074.025h0c-.056.015-.111.032-.166.05l-.031.01a5.49,5.49,0,0,1-.765.16,4.008,4.008,0,0,1-.745,0,.733.733,0,0,1-.7-.8h2.686s.172,0,.179,0,0-.045,0-.051Zm-1.313-.63H99.256a.85.85,0,0,1,.326-.783.872.872,0,0,1,.928-.027C100.818,44.128,100.843,44.436,100.834,44.768Z" transform="translate(-85.372 -40.471)"/><path class="b" d="M220.754,31.16h-1.548l-1.345,2.1V28.669l-1.461.177v6.883h1.461V33.622l1.345,2.109h1.548l-1.459-2.29Z" transform="translate(-184.072 -28.665)"/><path class="b" d="M189.291,42.84a2.919,2.919,0,0,0-1.526,0,1.838,1.838,0,0,0-1.429,1.444,4.9,4.9,0,0,0-.084,1.286,1.965,1.965,0,0,0,1.595,1.888l.041.009h.006c.036.007.072.014.109.019l.036,0h0c.046.008.1.015.157.019a2.939,2.939,0,0,0,.612.01h.033a2,2,0,0,0,1.917-1.6,3.48,3.48,0,0,0,0-1.543,1.918,1.918,0,0,0-1.471-1.54Zm.062,2.822c0,.031-.01.06-.017.09a.826.826,0,0,1-1.626-.087,5.6,5.6,0,0,1-.007-.989.832.832,0,0,1,1.635-.174A4.46,4.46,0,0,1,189.352,45.662Z" transform="translate(-158.972 -40.375)"/></g></g></svg>