<svg xmlns="http://www.w3.org/2000/svg" width="23.739" height="23.739" viewBox="0 0 23.739 23.739"><defs><style>.a{fill:#e57e25;}.b{fill:#26b99a;}.c{fill:#556080;}</style></defs><rect class="a" width="4" height="18" transform="translate(8 4.739)"/><rect class="b" width="4" height="6" transform="translate(13 16.739)"/><rect class="b" width="4" height="9" transform="translate(18 13.739)"/><rect class="b" width="4" height="15" transform="translate(3 7.739)"/><path class="c" d="M2.4,23.739a.4.4,0,0,1-.4-.4V.4a.4.4,0,1,1,.791,0V23.343A.4.4,0,0,1,2.4,23.739Z" transform="translate(-1.209)"/><path class="c" d="M23.343,56.791H.4A.4.4,0,0,1,.4,56H23.343a.4.4,0,0,1,0,.791Z" transform="translate(0 -33.844)"/></svg>