<svg xmlns="http://www.w3.org/2000/svg" width="16.254" height="16.253" viewBox="0 0 16.254 16.253"><defs><style>.a{fill:#fff;}.b{fill:#efecec;}.c{fill:#e97e24;}.d{fill:#258f44;}.e{fill:#efefef;}.f{fill:#ea8634;}.g{fill:#359846;}</style></defs><circle class="a" cx="8.126" cy="8.126" r="8.126" transform="translate(0.001 0.001)"/><path class="b" d="M319.225,157.873h-5.007a22.471,22.471,0,0,1,0,5.387h5.014a8.134,8.134,0,0,0-.011-5.387Z" transform="translate(-303.436 -152.456)"/><path class="c" d="M260.03,6.356h5.007l0-.007a8.132,8.132,0,0,0-6.93-5.377C259.349,1.654,259.712,3.814,260.03,6.356Z" transform="translate(-249.249 -0.939)"/><path class="d" d="M258.113,320.284a8.132,8.132,0,0,0,6.935-5.393l.008-.023h-5.014C259.727,317.423,259.362,319.6,258.113,320.284Z" transform="translate(-249.256 -304.064)"/><path class="e" d="M0,160.582a8.115,8.115,0,0,0,.454,2.677H11.2a22.471,22.471,0,0,0,0-5.387H.464A8.11,8.11,0,0,0,0,160.582Z" transform="translate(0 -152.455)"/><path class="f" d="M13.536,5.411l0,.007H24.269c-.318-2.542-1.1-4.7-2.344-5.384C21.685.013,21.441,0,21.2,0A8.128,8.128,0,0,0,13.536,5.411Z" transform="translate(-13.069 -0.001)"/><path class="g" d="M23.97,314.867H13.219l.008.023a8.129,8.129,0,0,0,7.665,5.426c.246,0,.489-.012.73-.034C22.871,319.6,23.654,317.422,23.97,314.867Z" transform="translate(-12.765 -304.063)"/></svg>