<svg xmlns="http://www.w3.org/2000/svg" width="23.623" height="23.624" viewBox="0 0 23.623 23.624"><path d="M23.551,10.5a.769.769,0,0,0-.759-.582,2.608,2.608,0,0,1-1.785-4.539.656.656,0,0,0,.072-.891A11.693,11.693,0,0,0,19.207,2.6a.658.658,0,0,0-.9.073,2.722,2.722,0,0,1-2.946.662,2.624,2.624,0,0,1-1.6-2.564.655.655,0,0,0-.58-.69A11.788,11.788,0,0,0,10.53.071a.658.658,0,0,0-.585.676,2.628,2.628,0,0,1-1.617,2.52A2.73,2.73,0,0,1,5.4,2.6a.658.658,0,0,0-.891-.075A11.742,11.742,0,0,0,2.6,4.415a.657.657,0,0,0,.07.9,2.618,2.618,0,0,1,.66,2.947,2.73,2.73,0,0,1-2.57,1.6.643.643,0,0,0-.682.58,11.841,11.841,0,0,0-.005,2.686A.782.782,0,0,0,.85,13.7a2.591,2.591,0,0,1,2.431,1.618,2.628,2.628,0,0,1-.661,2.921.656.656,0,0,0-.072.89,11.735,11.735,0,0,0,1.868,1.891.657.657,0,0,0,.9-.071A2.718,2.718,0,0,1,8.26,20.29a2.62,2.62,0,0,1,1.6,2.563.656.656,0,0,0,.579.69,11.761,11.761,0,0,0,2.657.007.657.657,0,0,0,.584-.676A2.625,2.625,0,0,1,15.3,20.356a2.726,2.726,0,0,1,2.925.665.66.66,0,0,0,.891.075,11.758,11.758,0,0,0,1.911-1.889.656.656,0,0,0-.07-.9,2.617,2.617,0,0,1-.662-2.946,2.644,2.644,0,0,1,2.416-1.6l.146,0a.658.658,0,0,0,.691-.579A11.789,11.789,0,0,0,23.551,10.5ZM11.813,18.621A6.809,6.809,0,1,1,17.66,15.3l-2.982-2.982A4.177,4.177,0,0,0,9.732,6.663a.473.473,0,0,0-.327.329.461.461,0,0,0,.131.451S11.009,8.927,11.5,9.42a.305.305,0,0,1,.044.219l0,.032a9.414,9.414,0,0,1-.224,1.441l-.031.03-.033.034a9.28,9.28,0,0,1-1.463.227v0l-.025.006H9.741a.315.315,0,0,1-.226-.1C9,10.8,7.588,9.395,7.588,9.395a.481.481,0,0,0-.344-.153A.467.467,0,0,0,6.8,9.6a4.178,4.178,0,0,0,5.66,4.938l3.014,3.014A6.775,6.775,0,0,1,11.813,18.621Z" transform="translate(-0.002 0.001)"/></svg>