<svg xmlns="http://www.w3.org/2000/svg" width="23.484" height="23.739" viewBox="0 0 23.484 23.739"><defs><style>.a{fill:#82aee3;}.b{fill:#d3e1f5;}.c{fill:#b2caec;}.d{fill:#528fd8;}.e{fill:#5a5a5a;}.f{fill:#cecece;}.g{fill:#9c9c9c;}.h{fill:#0473ce;}.i{fill:#c0d6f2;}.j{fill:#444;}.k{fill:#bfbfbf;}.l{fill:#838383;}.m{fill:#0067c5;}</style></defs><path class="a" d="M62.331,66.308H47.39V44.639H62.9v21.1A.573.573,0,0,1,62.331,66.308Z" transform="translate(-45.32 -42.569)"/><path class="b" d="M64.186,64.238H47.39v-19.6h16.8a.573.573,0,0,1,.573.573V63.665A.573.573,0,0,1,64.186,64.238Z" transform="translate(-45.32 -42.569)"/><path class="c" d="M4.822,0a2.07,2.07,0,0,0-2.07,2.07v19.6a2.07,2.07,0,1,1,4.139,0V2.07A2.07,2.07,0,0,0,4.822,0Z" transform="translate(-2.752)"/><g transform="translate(7.966 4.367)"><path class="d" d="M182.056,94.908h-7.144a.358.358,0,1,1,0-.716h7.144a.358.358,0,1,1,0,.716Z" transform="translate(-174.554 -94.192)"/></g><g transform="translate(6.403 7.218)"><path class="d" d="M151.475,156.394H141.206a.358.358,0,1,1,0-.716h10.269a.358.358,0,1,1,0,.716Z" transform="translate(-140.848 -155.678)"/></g><g transform="translate(6.403 9.875)"><path class="d" d="M151.475,213.7H141.206a.358.358,0,1,1,0-.716h10.269a.358.358,0,1,1,0,.716Z" transform="translate(-140.848 -212.982)"/></g><g transform="translate(6.403 12.688)"><path class="d" d="M151.475,274.372H141.206a.358.358,0,0,1,0-.716h10.269a.358.358,0,0,1,0,.716Z" transform="translate(-140.848 -273.656)"/></g><g transform="translate(6.403 15.501)"><path class="d" d="M151.475,335.047H141.206a.358.358,0,0,1,0-.716h10.269a.358.358,0,0,1,0,.716Z" transform="translate(-140.848 -334.331)"/></g><g transform="translate(6.403 18.314)"><path class="d" d="M151.475,395.721H141.206a.358.358,0,1,1,0-.716h10.269a.358.358,0,1,1,0,.716Z" transform="translate(-140.848 -395.005)"/></g><path class="e" d="M457.739,252.4h2.388v8.429h-2.388Z" transform="translate(-436.644 -240.694)"/><path class="f" d="M460.127,434.189h-2.388l1.044,1.915a.171.171,0,0,0,.3,0Z" transform="translate(-436.644 -414.058)"/><path class="e" d="M466.139,62.85h-1.774V61.68a.569.569,0,0,1,.569-.569h.635a.569.569,0,0,1,.569.569Z" transform="translate(-442.962 -58.278)"/><path class="g" d="M459.919,98.618h-1.971a.209.209,0,0,0-.209.209V99.94h2.388V98.827A.209.209,0,0,0,459.919,98.618Z" transform="translate(-436.644 -94.046)"/><path class="h" d="M457.739,127.123h2.388v5.808h-2.388Z" transform="translate(-436.644 -121.229)"/><path class="i" d="M370.66,44.639h-1.9a.573.573,0,0,1,.573.573V63.665a.573.573,0,0,1-.573.573h1.9a.573.573,0,0,0,.573-.573V45.212A.573.573,0,0,0,370.66,44.639Z" transform="translate(-351.794 -42.569)"/><circle class="a" cx="2.07" cy="2.07" r="2.07" transform="translate(0 19.599)"/><path class="j" d="M482.966,252.4h1.219v8.429h-1.219Z" transform="translate(-460.701 -240.694)"/><path class="k" d="M470.937,434.189l-.585,1.073.459.842a.171.171,0,0,0,.3,0l1.044-1.915Z" transform="translate(-448.672 -414.058)"/><path class="l" d="M479.684,98.618h-1.219a.209.209,0,0,1,.209.209V99.94h1.219V98.827A.209.209,0,0,0,479.684,98.618Z" transform="translate(-456.409 -94.046)"/><path class="m" d="M482.966,127.123h1.219v5.808h-1.219Z" transform="translate(-460.701 -121.229)"/></svg>