<svg xmlns="http://www.w3.org/2000/svg" width="42" height="76.597" viewBox="0 0 42 76.597"><defs><style>.a{fill:#707070;}</style></defs><g transform="translate(-80.804)"><g transform="translate(80.804)"><path class="a" d="M114.776,0H88.887A8.012,8.012,0,0,0,80.8,7.973V68.625A8.035,8.035,0,0,0,88.887,76.6h25.944a7.964,7.964,0,0,0,7.973-7.973V8.028A8.071,8.071,0,0,0,114.776,0Zm6.813,68.5h0a6.75,6.75,0,0,1-6.758,6.757H88.887A6.9,6.9,0,0,1,82,68.5V7.9a6.886,6.886,0,0,1,6.886-6.757h25.889A6.821,6.821,0,0,1,121.589,7.9Z" transform="translate(-80.804)"/></g><g transform="translate(83.824 10.113)"><g transform="translate(0)"><path class="a" d="M130.52,47.6h-2.431v.018h0a.608.608,0,1,0,0,1.215h1.8v38.98l-2.6-2.6a.6.6,0,0,0-.847.847l3.443,3.443v12.428H96.106V49.131l13.515,13.515a.533.533,0,0,0,.423.184.62.62,0,0,0,.423-.184.589.589,0,0,0,0-.847L97.487,48.818h25.17a.608.608,0,1,0,0-1.215H96.29l-.184-.184a.589.589,0,0,0-.847,0,.571.571,0,0,0-.166.331.56.56,0,0,0-.184.46v54.318a.57.57,0,0,0,.608.608h35a.57.57,0,0,0,.608-.608V48.211A.57.57,0,0,0,130.52,47.6Z" transform="translate(-94.909 -47.239)"/></g></g><g transform="translate(97.081 5.671)"><g transform="translate(0)"><path class="a" d="M165.893,26.491h-8.451a.57.57,0,0,0-.608.608.58.58,0,0,0,.608.608h8.451a.608.608,0,0,0,0-1.215Z" transform="translate(-156.834 -26.491)"/></g></g><g transform="translate(94.135 5.363)"><path class="a" d="M144.1,25.229a.589.589,0,0,0-.847,0,.533.533,0,0,0-.184.423.619.619,0,0,0,.184.423.509.509,0,0,0,.423.184.6.6,0,0,0,.423-1.031Z" transform="translate(-143.073 -25.049)"/></g><g transform="translate(101.32 27.532)"><g transform="translate(0)"><path class="a" d="M183.629,134.747l-5.966-5.966a.6.6,0,0,0-.847.847l5.966,5.966a.6.6,0,0,0,.423.184.533.533,0,0,0,.423-.184A.589.589,0,0,0,183.629,134.747Z" transform="translate(-176.637 -128.602)"/></g></g><g transform="translate(95.336 28.066)"><g transform="translate(0)"><path class="a" d="M167.094,148.658l-17.382-17.382a.6.6,0,1,0-.847.847L166.247,149.5a.579.579,0,0,0,.847,0A.589.589,0,0,0,167.094,148.658Z" transform="translate(-148.686 -131.096)"/></g></g><g transform="translate(98.08 66.963)"><g transform="translate(0)"><path class="a" d="M168.547,315.535a.6.6,0,0,0-1.16.295,2.356,2.356,0,1,1-2.836-1.749,3.223,3.223,0,0,1,1.031,0,.61.61,0,1,0,.239-1.2,3.214,3.214,0,0,0-1.565,0,3.616,3.616,0,0,0,.847,7.126,1.635,1.635,0,0,0,.792-.129A3.6,3.6,0,0,0,168.547,315.535Z" transform="translate(-161.5 -312.786)"/></g></g></g></svg>