<svg xmlns="http://www.w3.org/2000/svg" width="86.189" height="45.591" viewBox="0 0 86.189 45.591"><defs><style>.a{fill:#707070;}</style></defs><path class="a" d="M86.189,189.632v17.835a1.437,1.437,0,0,1-1.436,1.436H81.341a1.436,1.436,0,1,1,0-2.873h1.975v-16.4a7.2,7.2,0,0,0-2.957-5.809c-5.5-3.992-16.064-9.992-29.179-9.309l.935,7.2a1.437,1.437,0,0,1-2.849.37l-.95-7.318a41.692,41.692,0,0,0-23.009,10.809H61.6a7.151,7.151,0,0,0,5.589-2.671,1.437,1.437,0,0,1,2.236,1.8A10.011,10.011,0,0,1,61.6,188.45H22.01L6.029,192.889a4.323,4.323,0,0,0-3.156,4.152v8.611H5.028a1.436,1.436,0,1,1,0,2.873H1.437A1.437,1.437,0,0,1,0,207.089V197.042a7.2,7.2,0,0,1,5.26-6.92l15.767-4.38c15.648-16.343,39.94-19.547,61.02-4.243a10.079,10.079,0,0,1,4.143,8.134ZM29.628,207.124a10.055,10.055,0,1,1-10.055-10.055A10.067,10.067,0,0,1,29.628,207.124Zm-2.873,0a7.182,7.182,0,1,0-7.182,7.182A7.191,7.191,0,0,0,26.755,207.124Zm49.918,0a10.055,10.055,0,1,1-10.055-10.055A10.067,10.067,0,0,1,76.673,207.124Zm-2.873,0a7.182,7.182,0,1,0-7.182,7.182A7.191,7.191,0,0,0,73.8,207.124Zm-21.188-1.077H34.117a1.436,1.436,0,0,0,0,2.873H52.611a1.436,1.436,0,1,0,0-2.873Z" transform="translate(0 -171.589)"/></svg>