<svg xmlns="http://www.w3.org/2000/svg" width="22.851" height="22.891" viewBox="0 0 22.851 22.891"><defs><style>.a{fill:#b9b9bf;}</style></defs><g transform="translate(-0.44)"><g transform="translate(0.44)"><path class="a" d="M10.885,21.063H3.12A.893.893,0,0,1,2.27,19.9a6.886,6.886,0,0,1,6.542-4.658,6.676,6.676,0,0,1,3.838,1.2.893.893,0,1,0,1.021-1.464,8.481,8.481,0,0,0-1.78-.95,4.544,4.544,0,0,0,1.478-3,6.719,6.719,0,0,1,8.519-.7A.893.893,0,1,0,22.909,8.87a8.481,8.481,0,0,0-1.78-.95A4.552,4.552,0,1,0,15,7.91q-.187.072-.371.153a8.474,8.474,0,0,0-1.572.9,4.551,4.551,0,1,0-7.3,5.046,8.584,8.584,0,0,0-5.183,5.34,2.678,2.678,0,0,0,2.549,3.5h7.765a.893.893,0,0,0,0-1.785ZM18.07,1.785A2.767,2.767,0,1,1,15.3,4.552,2.77,2.77,0,0,1,18.07,1.785ZM8.832,7.893A2.767,2.767,0,1,1,6.065,10.66,2.77,2.77,0,0,1,8.832,7.893Z" transform="translate(-0.44 0)"/><path class="a" d="M273.794,322.516a.892.892,0,0,0-1.245.206l-4.4,6.145a.51.51,0,0,1-.734.038l-2.848-2.735a.893.893,0,0,0-1.236,1.288l2.851,2.737a2.3,2.3,0,0,0,1.583.633q.076,0,.151-.005a2.3,2.3,0,0,0,1.636-.852l.03-.04,4.417-6.17A.893.893,0,0,0,273.794,322.516Z" transform="translate(-251.316 -307.938)"/></g></g></svg>